<svg xmlns="http://www.w3.org/2000/svg">
  <symbol viewBox="0 0 52 24" id="logo-desktop">
    <path d="M44.447 23H7.383a.841.841 0 0 1-.797-.56L1.046 6.551a.826.826 0 0 1 .523-1.053.837.837 0 0 1 .407-.033.84.84 0 0 1 .72.492c.685 1.53 3.121 6.467 5.964 6.467l.107-.003c1.714-.075 4.396-2.02 7.434-10.858A.842.842 0 0 1 16.998 1c.362 0 .682.227.799.563 1.037 3.014 4.513 10.812 8.124 10.812h.029c1.711-.02 4.343-1.91 7.161-10.793A.841.841 0 0 1 33.916 1h.008a.84.84 0 0 1 .8.598c.862 2.916 3.917 10.555 7.664 10.874 2.189.178 4.616-2.258 7.013-7.07A.848.848 0 0 1 50.48 5c.41.168.618.62.475 1.034L45.244 22.44a.842.842 0 0 1-.797.56ZM7.984 21.344h35.86l3.3-9.482c-1.594 1.66-3.214 2.4-4.903 2.26-4.15-.354-6.998-6.234-8.322-9.69-2.338 6.418-4.95 9.564-7.95 9.598l-.048.002c-4.194 0-7.432-6.322-8.899-9.81-2.502 6.494-5.188 9.722-8.18 9.854-1.535.058-2.87-.693-4.021-1.809l3.163 9.077Z" fill="#A07B50" stroke="#1F1C1D" stroke-width=".8"/>
  </symbol>
  <symbol viewBox="0 0 13 8" id="vk-acquaintance-desktop">
    <path d="M12.884 7.136c-.035-.064-.251-.57-1.291-1.611-1.089-1.09-.943-.913.369-2.799C12.76 1.578 13.08.877 12.98.578c-.095-.286-.683-.21-.683-.21L10.345.38s-.145-.021-.253.048a.59.59 0 0 0-.172.226s-.31.888-.722 1.644c-.87 1.594-1.22 1.678-1.361 1.58-.331-.231-.248-.928-.248-1.422C7.588.91 7.805.266 7.165.1c-.213-.055-.37-.092-.913-.098C5.555-.006 4.964.004 4.63.18c-.222.117-.394.38-.29.394.13.018.423.085.578.313.2.293.193.954.193.954s.116 1.819-.269 2.045c-.264.155-.625-.161-1.401-1.608-.398-.74-.698-1.56-.698-1.56S2.685.566 2.582.485c-.125-.1-.301-.13-.301-.13L.424.365s-.28.01-.382.14C-.048.622.035.862.035.862s1.455 3.67 3.1 5.52c1.511 1.696 3.226 1.584 3.226 1.584h.777s.235-.028.354-.167c.11-.128.106-.368.106-.368s-.015-1.125.47-1.29c.476-.163 1.089 1.087 1.738 1.568.49.363.864.284.864.284l1.736-.027s.909-.06.478-.83Z" fill="#fff"/>
  </symbol>
  <symbol viewBox="0 0 16 11" id="twitter-acquaintance-desktop">
    <path d="M13.376 4.62c.847-.07 1.422-.455 1.643-.978-.306.188-1.254.393-1.778.198a6.462 6.462 0 0 0-.083-.346C12.758 2.028 11.392.847 9.96.99c.116-.047.233-.09.35-.13.158-.056 1.083-.206.937-.533C11.125.04 9.994.544 9.782.61c.28-.106.745-.287.795-.61-.43.059-.853.262-1.18.558A.81.81 0 0 0 9.625.11c-1.148.734-1.818 2.212-2.36 3.646-.427-.413-.805-.738-1.143-.919-.95-.51-2.087-1.041-3.87-1.703-.055.59.291 1.375 1.29 1.897-.216-.03-.612.035-.929.111.13.676.55 1.233 1.69 1.502-.521.035-.79.153-1.034.409.237.47.816 1.023 1.857.91-1.158.499-.472 1.423.47 1.285-1.607 1.66-4.14 1.538-5.595.15 3.798 5.175 12.055 3.06 13.285-1.925.922.008 1.464-.32 1.8-.68-.531.09-1.301-.003-1.71-.173Z" fill="#fff"/>
  </symbol>
  <symbol viewBox="0 0 6 12" id="fb-acquaintance-desktop">
    <path d="M1.099 2.729v1.5H0v1.834h1.099v5.451h2.258v-5.45h1.515s.142-.88.21-1.842H3.365V2.968c0-.188.246-.44.49-.44h1.23V.618H3.412C1.043.618 1.1 2.454 1.1 2.728Z" fill="#fff"/>
  </symbol>
</svg>
